<?xml version="1.0" standalone="no"?><!DOCTYPE svg PUBLIC "-//W3C//DTD SVG 1.1//EN" "http://www.w3.org/Graphics/SVG/1.1/DTD/svg11.dtd"><svg t="1616752517933" class="icon" viewBox="0 0 1024 1024" version="1.1" xmlns="http://www.w3.org/2000/svg" p-id="2182" xmlns:xlink="http://www.w3.org/1999/xlink" width="200" height="200"><defs><style type="text/css"></style></defs><path d="M834.773333 842.666667a5.333333 5.333333 0 0 1-5.333333-5.333334V431.146667a21.333333 21.333333 0 0 0-21.333333-21.333334h-48.8a5.333333 5.333333 0 0 1-5.333334-5.333333V208a5.333333 5.333333 0 0 0-5.333333-5.333333h-64a5.333333 5.333333 0 0 0-5.333333 5.333333v196.48a5.333333 5.333333 0 0 1-5.333334 5.333333H371.946667a5.333333 5.333333 0 0 1-5.333334-5.333333V208a5.333333 5.333333 0 0 0-5.333333-5.333333h-64a5.333333 5.333333 0 0 0-5.333333 5.333333v196.48a5.333333 5.333333 0 0 1-5.333334 5.333333H215.84a21.333333 21.333333 0 0 0-21.333333 21.333334V837.333333a5.333333 5.333333 0 0 1-5.333334 5.333334H112a5.333333 5.333333 0 0 0-5.333333 5.333333v64a5.333333 5.333333 0 0 0 5.333333 5.333333h800a5.333333 5.333333 0 0 0 5.333333-5.333333v-64a5.333333 5.333333 0 0 0-5.333333-5.333333z m-85.333333-1.173334h-474.666667a5.333333 5.333333 0 0 1-5.333333-5.333333v-155.786667a5.333333 5.333333 0 0 1 2.4-4.426666 238.293333 238.293333 0 0 0 41.066667-34.826667c41.493333-43.146667 52.906667-33.6 90.666666-1.973333 4.426667 3.68 8.8 7.36 13.28 10.666666 2.986667 2.4 6.133333 5.333333 9.333334 7.84 30.293333 25.973333 101.333333 86.826667 192.96-17.493333 12.16-13.813333 30.4-30.293333 48-30.293333 18.773333 0 38.346667 18.133333 51.52 33.28l1.706666 1.866666a247.733333 247.733333 0 0 0 32 27.146667 5.333333 5.333333 0 0 1 2.24 4.373333v159.36a5.333333 5.333333 0 0 1-5.173333 5.6z m5.333333-351.68v83.786667c-27.84-25.226667-57.12-38.026667-87.306666-38.133333h-0.32c-36.746667 0-71.84 18.72-104.32 55.68-42.986667 48.853333-57.173333 36.746667-88.16 10.08-3.946667-3.36-7.733333-6.56-11.413334-9.493334s-7.946667-6.56-11.893333-9.866666c-36.906667-30.88-97.706667-81.706667-182.08-2.666667V489.813333a5.333333 5.333333 0 0 1 5.333333-5.333333h474.666667a5.333333 5.333333 0 0 1 5.493333 5.333333z" p-id="2183"></path><path d="M329.28 144m-37.333333 0a37.333333 37.333333 0 1 0 74.666666 0 37.333333 37.333333 0 1 0-74.666666 0Z" p-id="2184"></path><path d="M522.986667 144m-37.333334 0a37.333333 37.333333 0 1 0 74.666667 0 37.333333 37.333333 0 1 0-74.666667 0Z" p-id="2185"></path><path d="M485.653333 202.72m5.333334 0l64 0q5.333333 0 5.333333 5.333333l0 141.76q0 5.333333-5.333333 5.333334l-64 0q-5.333333 0-5.333334-5.333334l0-141.76q0-5.333333 5.333334-5.333333Z" p-id="2186"></path><path d="M716.693333 144m-37.333333 0a37.333333 37.333333 0 1 0 74.666667 0 37.333333 37.333333 0 1 0-74.666667 0Z" p-id="2187"></path></svg>